<?xml version="1.0" encoding="utf-8"?>
<!-- Generator: Adobe Illustrator 16.0.0, SVG Export Plug-In . SVG Version: 6.00 Build 0)  -->
<!DOCTYPE svg PUBLIC "-//W3C//DTD SVG 1.1//EN" "http://www.w3.org/Graphics/SVG/1.1/DTD/svg11.dtd" [
	<!ENTITY ns_flows "http://ns.adobe.com/Flows/1.0/">
	<!ENTITY ns_extend "http://ns.adobe.com/Extensibility/1.0/">
	<!ENTITY ns_ai "http://ns.adobe.com/AdobeIllustrator/10.0/">
	<!ENTITY ns_graphs "http://ns.adobe.com/Graphs/1.0/">
]>
<svg version="1.1" id="Layer_1" xmlns:x="&ns_extend;" xmlns:i="&ns_ai;" xmlns:graph="&ns_graphs;"
	 xmlns="http://www.w3.org/2000/svg" xmlns:xlink="http://www.w3.org/1999/xlink" xmlns:a="http://ns.adobe.com/AdobeSVGViewerExtensions/3.0/"
	 x="0px" y="0px" width="864px" height="864px" viewBox="0 0 864 864" enable-background="new 0 0 864 864" xml:space="preserve">
<path fill-rule="evenodd" clip-rule="evenodd" fill="#F7941E" d="M493.73,175.688c-0.16,24.077-16.564,41.543-38.593,41.092
	c-22.214-0.456-38.555-18.396-38.047-41.771c0.519-23.9,19.122-45.245,39.372-45.172C478.19,129.915,493.908,149.253,493.73,175.688
	z"/>
<g>
	<path fill-rule="evenodd" clip-rule="evenodd" fill="#FFFFFF" d="M373.74,111.497c0.308-23.179,16.159-39.142,38.755-39.03
		c20.257,0.1,39.844,16.321,39.386,34.363c-0.148,5.885-4.654,12.652-9.039,17.22c-7.95,8.281-18.156,14.447-25.821,22.939
		c-6.912,7.66-13.495,8.094-21.231,3.304C381.485,141.437,372.996,129.026,373.74,111.497z M420.368,97.917
		c-10.034,0.38-15.741,4.994-15.997,14.643c-0.259,9.729,4.223,16.78,14.519,16.897c8.924,0.103,14.89-4.515,15.296-14.61
		C434.603,104.482,429.783,99.134,420.368,97.917z"/>
	<path fill-rule="evenodd" clip-rule="evenodd" fill="#FFFFFF" d="M535.993,109.098c0.301,17.577-15.858,35.873-33.577,38.009
		c-0.887,0.106-2.142,0.62-2.614,0.221c-13.4-11.312-29.442-20.805-39.217-34.699c-8.222-11.684-0.828-25.69,10.883-35.127
		c12.848-10.354,26.674-11.508,41.458-5.018C526.229,78.325,535.723,93.471,535.993,109.098z M476.165,109.187
		c0.311,10.359,4.492,17.108,14.548,18.363c7.946,0.991,18.476-8.29,18.121-16.188c-0.438-9.729-5.831-15.621-15.968-16.012
		C482.866,94.965,476.774,99.388,476.165,109.187z"/>
</g>
<g>
	<path fill-rule="evenodd" clip-rule="evenodd" fill="#ED1C24" d="M433.715,574.415c-10.144,11.222-23.869,12.569-35.827,4.34
		c-1.447-0.995-2.873-3.337-4.065-3.182c-13.682,1.781-15.47-8.672-19.341-17.696c-3.585-8.357-1.399-18.423-10.722-25.65
		c-3.644-2.824-1.885-14.715-0.18-21.906c3.613-15.234,8.159-30.33,13.512-45.052c7.616-20.943,16.308-41.495,24.519-62.224
		c0.607-1.534,1.032-3.14,1.542-4.712c-1.44-0.66-2.881-1.318-4.321-1.978c-5.28,11.776-10.415,23.618-15.878,35.308
		c-6.345,13.58-14.211,26.597-19.089,40.667c-3.807,10.982-3.575,23.3-6.023,34.837c-2.29,10.791-4.036,22.308-9.329,31.624
		c-3.183,5.602-12.656,10.24-19.377,10.341c-4.867,0.074-10.252-7.666-14.64-12.602c-2.575-2.899-3.633-7.138-5.405-10.759
		c-5.685-11.612-9.327-21.368,2.449-33.519c16.03-16.539,30.23-35.322,42.602-54.803c13.33-20.99,24.336-43.566,35.009-66.089
		c6.291-13.275,26.207-24.439,40.643-21.997c16.287,2.755,32.863,4.307,49.368,4.948c5.144,0.199,10.606-3.997,15.677-6.652
		c10.866-5.691,20.949-7.654,29.624,3.843c2.407,3.192,5.565,5.856,8.563,8.559c17.702,15.953,35.08,32.297,53.345,47.583
		c10.208,8.543,28.494,40.199,28.511,52.415c0.021,13.853-6.852,23.976-17.433,31.685c-2.659,1.938-7.199,1.33-10.885,1.815
		c-2.84,0.375-6.412-0.355-8.425,1.104c-11.162,8.1-21.604,8.116-32.594-2.971c-0.701,7.461-0.632,13.647-1.975,19.511
		c-2.616,11.431-10.425,16.146-21.971,14.987c-11.515-1.154-13.301-8.879-12.362-18.35c1.266-12.771,2.646-25.531,4.045-38.954
		c-17.578,11.222-9.457,30.101-12.87,45.239c-18.538-0.834-28.646-17.336-20.737-33.629c4.661-9.604,9.79-18.981,13.661-29.162
		c-14.331,6.558-18.951,20.503-22.492,33.91c-3.1,11.734-8.226,16.402-20.382,14.897c-11.528-1.425-20.224-13.043-16.121-23.814
		c0.979-2.572,3.803-6.304,5.814-6.326c17.242-0.195,28.204-11.672,38.073-22.748c13.387-15.027,29.845-16.697,47.312-14.57
		c10.464,1.274,20.534,5.764,27.416,7.808c8.425-2.682,14.29-4.549,20.962-6.672c-1.613-10.206-9.465-8.284-16.802-8.391
		c-3.801-0.055-9.432-0.923-11.05-3.458c-9.651-15.118-18.372-30.828-27.405-46.341c-1.882,1.098-3.764,2.196-5.645,3.293
		c9.315,15.124,18.633,30.248,29.012,47.096c-13.835-1.16-24.339-3.304-34.659-2.631c-18.697,1.217-31.748,12.451-43.216,26.624
		c-4.336,5.357-11.462,10.479-18.004,11.565c-10.263,1.705-18.361,5.718-18.816,15.579c-0.341,7.401,4.507,15.13,7.481,22.536
		c0.741,1.845,3.17,3.012,5.027,4.675c-5.346,6.016-10.475,11.789-15.604,17.562c0.865,0.822,1.729,1.646,2.596,2.471
		c8.437-4.559,16.556-9.908,25.396-13.461c9.669-3.883,20.045-6.499,27.559,4.809c0.679,1.021,2.117,1.831,3.353,2.141
		c31.64,7.919,30.207,32.396,28.641,56.983c-0.967,15.201-0.698,30.608-3.323,45.512c-1.098,6.23-7.282,12.722-12.836,16.807
		c-23.656,17.409-44.893,31.527-53.375,63.492c4.063-5.023,8.196-9.991,12.177-15.077c23.773-30.38,52.127-53.573,91.822-59.433
		c25.187-3.717,41.192,16.237,32.107,40.527c-1.691,4.522-4.313,8.697-7.103,14.212c-23.532-13.292-46.476-9.877-68.908,2.281
		c-2.665,1.444-6.785,3.129-7.213,5.299c-2.748,13.959-15.134,16.217-24.975,21.275c-13.849,7.12-25.729,15.859-30.019,33.406
		c3.766-2.099,9.178-3.249,11.027-6.454c9.885-17.136,26.729-23.009,43.812-28.699c7.631-2.543,15.929-3.515,14.657-15.352
		c-0.24-2.231,6.599-7.264,10.408-7.521c13.692-0.929,27.485-0.365,42.384-0.365c-0.688,3.598-1.192,6.228-1.689,8.83
		c11.775,3.276,24.973-17.04,27.938-42.61c10.836,3.258,25.141,18.029,22.336,24.836c-4.595,11.158-11.188,21.505-17.117,32.095
		c-1.249,2.229-3.263,4.029-3.122,8.691c4.114-2.575,8.229-5.153,12.788-8.008c9.405,10.363,3.366,19.107-4.427,27.171
		c-3.352,3.469-7.476,6.676-11.864,8.583c-35.704,15.514-71.934,29.874-107.2,46.307c-18.235,8.497-35.167,1.085-52.677,0.351
		c-1.669-0.07-3.26-2.605-4.841-4.045c-4.462-4.066-8.899-8.156-13.348-12.238c-1.832,0.696-3.922-27.002-0.472-40.885
		c5.861-23.594,19.249-46.569,19.603-69.954c0.413-27.353,5.79-53.586,7.892-80.396C436.438,580.77,434.722,577.88,433.715,574.415z
		 M416.423,434.847c1.682,0.169,3.363,0.337,5.045,0.504c1.685-13.945,3.37-27.892,5.055-41.838
		c-2.446-0.234-4.893-0.469-7.338-0.704C418.265,406.822,417.343,420.834,416.423,434.847z M512.125,404.333
		c1.498-16.242-14.49-22.096-23.833-32.711c0.219,6.064,0.685,12.665,4.146,16.685C497.706,394.426,505.05,398.758,512.125,404.333z
		 M455.427,577.275c-13.32,30.689-13.686,33.36-6.672,42.938c1.267-5.83,0.583-13.961,4.266-17.357
		C461.305,595.219,458.372,588.146,455.427,577.275z M405.581,445.009c-1.294-0.188-2.589-0.375-3.883-0.563
		c-8.374,9.978-9.652,21.021-5.996,32.806c1.415,0.232,2.83,0.466,4.244,0.697C401.824,466.969,403.702,455.988,405.581,445.009z
		 M326.479,494.702c2.301,0.972,4.604,1.943,6.904,2.915c4.083-9.53,8.165-19.062,12.249-28.594
		c-1.903-0.87-3.808-1.741-5.711-2.611C335.439,475.842,330.958,485.272,326.479,494.702z"/>
	<path fill-rule="evenodd" clip-rule="evenodd" fill="#ED1C24" d="M565.751,289.86c-21.111,38.692-59.4,55.334-105.033,56.785
		c-34.048,1.082-63.526-12.618-92.601-30.589c-19.186-11.856-30.447-26.893-39.325-45.774c-17.402-2.138-7.223-23.67-20.554-30.012
		c-1.971-0.937,2.418-15.246,4.113-24.76c-3.126-1.719-7.828-4.305-14.622-8.039c5.006-3.142,7.758-5.089,10.706-6.676
		c7.81-4.207,18.815-4.408,19.844-16.969c0.139-1.716,4.017-3.212,6.263-4.657c9.417-6.056,20.631-10.45,27.918-18.437
		c12.328-13.511,22.121-13.733,36.42-2.668c7.357,5.694,10.3,10.599,11.183,19.155c3.055,29.568,18.838,45.21,44.943,45.553
		c25.016,0.328,46.649-21.312,46.554-46.836c-0.022-5.78-0.952-11.556-1.531-18.104c8.388-4.593,16.95-9.278,25.508-13.97
		c13.617-7.469,33.647-1.014,42.034,12.546c3.688,5.964,9.163,10.991,14.442,15.762c7.588,6.855,15.737,13.088,21.292,17.653
		c1.812,11.105,3.422,19.857,4.631,28.665c1.359,9.917,1.657,19.109-9.052,25.446c-3.924,2.322-5.787,8.463-8.093,13.109
		c-4.356,8.785-7.923,17.993-12.762,26.49C576.595,286.052,572.006,286.778,565.751,289.86z M350.944,204.419
		c-6.187,4.851-11.05,7.449-13.958,11.465c-1.411,1.95-0.364,7.777,1.638,9.742c8.908,8.745,19.495,15.9,27.731,25.179
		c12.371,13.938,21.946,30.531,35.148,43.517c17.302,17.017,39.087,28.416,64.085,24.835c39.926-5.717,66.138-30.033,78.048-67.978
		c5.336-16.997,14.449-29.395,28.648-38.908c3.394-2.273,7.13-4.035,13.991-7.864c-8.901-2.861-14.283-11.4-19.708-2.047
		c-12.901,22.248-37.163,20.136-56.766,27.017c-11.244,3.947-24.937,0.314-37.31,1.847c-9.307,1.152-18.156,5.584-27.407,7.677
		c-14.981,3.388-31.088,12.558-42.924-6.432c-0.686-1.101-3.614-2.011-4.716-1.456c-11.115,5.612-19.122-2.414-28.679-5.159
		C358.007,222.764,349.275,220.599,350.944,204.419z M393.178,171.467c-0.636-1.922-1.271-3.844-1.907-5.766
		c-13.469,4.652-26.938,9.304-40.406,13.956c0.562,1.677,1.125,3.354,1.688,5.032C366.094,180.281,379.636,175.874,393.178,171.467z
		 M369.413,300.924c1.373-1.146,2.746-2.289,4.119-3.435c-3.241-6.16-6.304-12.429-9.854-18.406
		c-0.865-1.456-3.328-1.963-5.058-2.905c-1.042,2.1-3.541,5.143-2.891,6.146C359.907,288.773,364.773,294.775,369.413,300.924z
		 M575.229,243.432c-2.12-0.675-4.239-1.35-6.36-2.025c-2.928,8.443-5.854,16.886-8.781,25.33c2.062,0.72,4.123,1.44,6.185,2.16
		C569.258,260.409,572.244,251.921,575.229,243.432z M547.863,165.401c-9.455-10.766-19.392-10.754-26.86,0
		C530.002,165.401,538.778,165.401,547.863,165.401z"/>
	<path fill-rule="evenodd" clip-rule="evenodd" fill="#ED1C24" d="M615.837,615.007c-14.124-7.415-24.644-17.192-27.052-33.804
		c-2.512-17.324,7.856-29.206,24.958-26.626c21.271,3.209,35.326,15.142,42.017,35.823c6.987,21.602,17.406,42.624,20.701,64.738
		c3.258,21.872,3.201,45.068-6.604,66.676c-10.003,22.045-36.382,31.292-63.68,20.658c2.181-4.344,5.619-8.449,6.175-12.913
		c0.941-7.561,0.126-15.351-0.074-23.04c-0.123-4.708-2.307-10.374-0.418-13.948c9.141-17.293,8.045-26.314-6.043-39.627
		c-8.576-8.103-16.764-16.618-25.548-25.369c1.687-2.193,3.396-4.416,5.909-7.684c-17.121-5.023-28.819-14.407-25.823-32.808
		c1.885-11.572,7.293-22.324,21.787-31.114c-2.166,24.259,0.923,43.744,18.679,57.12c3.635,2.738,8.865,3.358,13.361,4.954
		C614.732,617.031,615.285,616.02,615.837,615.007z"/>
	<path fill-rule="evenodd" clip-rule="evenodd" fill="#ED1C24" d="M244.535,571.284c-6.493-2.987-10.687-4.986-14.938-6.857
		c-14.056-6.189-18.596-18.94-20.752-32.367c-0.529-3.288,4.289-9.985,7.707-10.83c7.356-1.818,16.699-3.472,22.865-0.418
		c9.624,4.767,17.285,13.497,28.526,22.829c-2.388-8.104-3.956-13.61-5.64-19.081c-1.182-3.843-2.808-7.567-3.741-11.463
		c-3.121-13.024,3.313-26.61,13.249-28.403c10.634-1.918,19.33,7.841,22.959,20.999c3.719,13.477,9.141,26.898,16.257,38.897
		c6.275,10.579,17.798,13.986,30.531,13.167c10.768-0.69,21.015,7.508,21.38,15.699c0.412,9.219-9.076,15.96-21.602,16.593
		c-6.062,0.307-11.951,3.264-18.039,3.934c-18.541,2.039-37.571,6.276-55.329,6.431c-19.595,0.171-38.945-4.859-59.077,1.173
		c-5.11,1.53-16.209-4.58-18.934-10.003c-5.779-11.505,5.289-19.152,12.642-25.346c3.383-2.849,12.218-1.112,17.711,0.908
		C227.308,569.722,232.853,577.138,244.535,571.284z"/>
	<path fill-rule="evenodd" clip-rule="evenodd" fill="#ED1C24" d="M536.367,579.483c-16.253-10.899-21.35-26.864-18.069-47.524
		c15.646,3.186,25.814-3.991,32.697-17.925c4.125-8.35,11.964-7.888,18.264-3.079c12.699,9.692,22.786,21.456,23.802,40.258
		c-16.009-2.141-27.313,2.648-34.705,18.295C555.755,575.015,544.078,576.231,536.367,579.483z"/>
	<path fill-rule="evenodd" clip-rule="evenodd" fill="#ED1C24" d="M548.869,579.28c5.304,14.324,9.921,26.794,14.555,39.309
		c-2.857,0-7.125-0.004-11.395,0.001c-18.361,0.021-23.994-9.212-14.901-25.725C540.155,587.365,545.467,583.123,548.869,579.28z"/>
	<path fill-rule="evenodd" clip-rule="evenodd" fill="#ED1C24" d="M514.908,627.656c1.094-18.428,2.062-34.738,3.028-51.037
		c12.803,1.938,15.683,6.589,12.398,17.82c-2.654,9.074-4.11,18.499-6.641,30.299C523.031,624.958,519.453,626.146,514.908,627.656z
		"/>
</g>
<g>
	<path fill-rule="evenodd" clip-rule="evenodd" d="M398.495,342.012c-33.917-0.725-63.597-45.47-76.245-55.349
		c-12.79-9.988-14.979-24.093-22.965-35.606c-1.646-2.371-2.942-5.926-2.506-8.631c1.834-11.396,2.679-21.215-6.086-31.721
		c-6.125-7.34,1.316-15.135,10.154-17.788c7.807-2.343,15.529-3.592,15.763-14.542c0.053-2.518,4.352-5.468,7.27-7.313
		c15.712-9.931,31.604-19.575,47.63-29.44c-8.295-25.315-12.171-49.147,11.017-67.301c19.404-15.193,38.246-12.839,70.847,7.281
		c12.654-13.854,26.976-25.5,47.401-22.322c22.913,3.563,48.775,21.521,43.385,55.957c-1.71,10.922,2.535,14.889,11.773,20.057
		c11.562,6.467,20.683,17.275,30.924,26.136c8.347,7.223,16.349,14.961,25.336,21.292c6.619,4.661,8.738,8.78,5.688,16.723
		c-1.743,4.537-1.024,10.475-0.048,15.519c3.072,15.875,2.017,30.031-12.633,40.363c-2.329,1.643-4.092,4.83-4.979,7.66
		c-9.727,31.013-35.111,48.958-57.59,69.3c-3.59,3.248-7.841,5.764-14.505,10.587c13.337,12.194,24.982,24.164,37.979,34.422
		c20.738,16.373,39.882,33.973,52.667,57.436c15.711,28.832,2.015,59.317-32.712,73.469c7.153,11.038,14.339,22.128,23.229,35.847
		c5.999,1.377,17.408,1.746,26.465,6.551c17.994,9.549,29.122,25.574,34.738,45.453c11.847,29.588,26.291,102.876,4.958,138.532
		c-7.043,18.091-26.216,19.666-43.058,22.144c-5.683,0.837-12.126,1.236-17.385-0.584c-21.264-7.362-38.768,1.714-57.229,10.265
		c-29.897,13.848-59.82,28.435-91.173,37.977c-13.513,4.112-30.78-2.861-46.068-6.1c-27.407-5.805-24.934-26.375-26.408-48.394
		c-1.726-25.771,11.211-44.735,19.596-66.21c3.36-8.604,5.651-16.484,2.76-27.511c-3.358-12.804,1.699-27.967,3.844-41.992
		c0.92-6.013,3.704-11.74,5.282-16.511c-17.478-4.813-33.865-9.327-51.733-14.248c-9.086,19.793-28.565,20.391-48.966,21.191
		c-20.702,0.813-41.381,6.382-61.931,5.687c-17.292-0.584-33.877-3.308-51.41,1.311c-10.669,2.81-23.102,0.687-30.127-12.087
		c-7.263-13.209-2.798-24.824,4.409-35.152c3.678-5.271,11.553-7.613,18.542-11.898c-7.765-8.876-15.373-18.112-5.825-30.165
		c9.562-12.07,28.172-17.298,41.531-13.461c8.052-12.094,11.591-27.768,23.129-33.713c9.95-5.127,20.426,0.567,35.558,12.958
		C337.415,444.365,366.182,393.912,398.495,342.012z M433.715,574.415c1.007,3.465,2.723,6.354,2.509,9.094
		c-2.102,26.811-7.479,53.044-7.892,80.396c-0.354,23.385-13.741,46.36-19.603,69.954c-3.45,13.883-1.36,41.581,0.472,40.885
		c4.448,4.082,8.885,8.172,13.348,12.238c1.581,1.439,3.172,3.975,4.841,4.045c17.51,0.734,34.441,8.146,52.677-0.351
		c35.267-16.433,71.496-30.793,107.2-46.307c4.389-1.907,8.513-5.114,11.864-8.583c7.793-8.063,13.832-16.808,4.427-27.171
		c-4.559,2.854-8.674,5.433-12.788,8.008c-0.141-4.662,1.873-6.463,3.122-8.691c5.929-10.59,12.522-20.937,17.117-32.095
		c2.805-6.807-11.5-21.578-22.336-24.836c-2.965,25.57-16.162,45.887-27.938,42.61c0.497-2.603,1.001-5.232,1.689-8.83
		c-14.898,0-28.691-0.563-42.384,0.365c-3.81,0.258-10.648,5.29-10.408,7.521c1.271,11.837-7.026,12.809-14.657,15.352
		c-17.084,5.69-33.928,11.563-43.812,28.699c-1.85,3.205-7.262,4.355-11.027,6.454c4.29-17.547,16.17-26.286,30.019-33.406
		c9.841-5.059,22.227-7.316,24.975-21.275c0.428-2.17,4.548-3.854,7.213-5.299c22.433-12.158,45.376-15.573,68.908-2.281
		c2.789-5.515,5.411-9.689,7.103-14.212c9.085-24.29-6.921-44.244-32.107-40.527c-39.695,5.859-68.049,29.053-91.822,59.433
		c-3.98,5.086-8.113,10.054-12.177,15.077c8.482-31.965,29.719-46.083,53.375-63.492c5.554-4.085,11.738-10.576,12.836-16.807
		c2.625-14.903,2.356-30.311,3.323-45.512c1.566-24.588,2.999-49.064-28.641-56.983c-1.235-0.31-2.674-1.12-3.353-2.141
		c-7.514-11.308-17.89-8.691-27.559-4.809c-8.84,3.553-16.959,8.902-25.396,13.461c-0.866-0.824-1.731-1.648-2.596-2.471
		c5.128-5.773,10.258-11.547,15.604-17.562c-1.857-1.663-4.286-2.83-5.027-4.675c-2.975-7.406-7.822-15.135-7.481-22.536
		c0.455-9.861,8.554-13.874,18.816-15.579c6.542-1.087,13.668-6.208,18.004-11.565c11.468-14.173,24.519-25.406,43.216-26.624
		c10.32-0.673,20.824,1.472,34.659,2.631c-10.379-16.848-19.696-31.972-29.012-47.096c1.881-1.098,3.763-2.195,5.645-3.293
		c9.033,15.513,17.754,31.223,27.405,46.341c1.618,2.535,7.249,3.403,11.05,3.458c7.337,0.106,15.188-1.815,16.802,8.391
		c-6.672,2.123-12.537,3.99-20.962,6.672c-6.882-2.044-16.952-6.534-27.416-7.808c-17.468-2.127-33.926-0.457-47.312,14.57
		c-9.869,11.076-20.831,22.553-38.073,22.748c-2.012,0.022-4.835,3.754-5.814,6.326c-4.103,10.771,4.593,22.39,16.121,23.814
		c12.156,1.505,17.282-3.163,20.382-14.897c3.541-13.407,8.161-27.353,22.492-33.91c-3.871,10.181-9,19.558-13.661,29.162
		c-7.908,16.293,2.199,32.795,20.737,33.629c3.413-15.139-4.708-34.018,12.87-45.239c-1.399,13.423-2.779,26.184-4.045,38.954
		c-0.938,9.471,0.848,17.195,12.362,18.35c11.546,1.158,19.354-3.557,21.971-14.987c1.343-5.863,1.273-12.05,1.975-19.511
		c10.989,11.087,21.432,11.07,32.594,2.971c2.013-1.46,5.585-0.729,8.425-1.104c3.686-0.485,8.226,0.122,10.885-1.815
		c10.581-7.709,17.453-17.832,17.433-31.685c-0.017-12.216-18.303-43.872-28.511-52.415c-18.265-15.285-35.643-31.63-53.345-47.583
		c-2.998-2.703-6.156-5.367-8.563-8.559c-8.675-11.497-18.758-9.534-29.624-3.843c-5.07,2.655-10.533,6.851-15.677,6.652
		c-16.505-0.641-33.081-2.193-49.368-4.948c-14.437-2.442-34.353,8.722-40.643,21.997c-10.673,22.522-21.679,45.099-35.009,66.089
		c-12.371,19.48-26.572,38.264-42.602,54.803c-11.776,12.15-8.134,21.906-2.449,33.519c1.772,3.621,2.83,7.859,5.405,10.759
		c4.388,4.936,9.773,12.676,14.64,12.602c6.721-0.101,16.194-4.739,19.377-10.341c5.293-9.316,7.039-20.833,9.329-31.624
		c2.449-11.537,2.217-23.854,6.023-34.837c4.878-14.069,12.745-27.087,19.089-40.667c5.463-11.69,10.598-23.532,15.878-35.308
		c1.44,0.66,2.881,1.318,4.321,1.978c-0.509,1.573-0.935,3.179-1.542,4.712c-8.211,20.729-16.903,41.281-24.519,62.224
		c-5.354,14.722-9.899,29.817-13.512,45.052c-1.705,7.191-3.463,19.082,0.18,21.906c9.322,7.228,7.136,17.293,10.722,25.65
		c3.871,9.024,5.659,19.478,19.341,17.696c1.192-0.155,2.618,2.187,4.065,3.182C409.846,586.984,423.571,585.637,433.715,574.415z
		 M565.751,289.86c6.255-3.082,10.844-3.808,12.278-6.329c4.839-8.497,8.405-17.705,12.762-26.49
		c2.306-4.646,4.169-10.787,8.093-13.109c10.709-6.337,10.411-15.529,9.052-25.446c-1.209-8.808-2.818-17.56-4.631-28.665
		c-5.555-4.565-13.704-10.797-21.292-17.653c-5.279-4.771-10.754-9.797-14.442-15.762c-8.387-13.56-28.417-20.015-42.034-12.546
		c-8.558,4.692-17.12,9.377-25.508,13.97c0.579,6.548,1.509,12.325,1.531,18.104c0.096,25.525-21.538,47.164-46.554,46.836
		c-26.105-0.342-41.888-15.984-44.943-45.553c-0.883-8.556-3.826-13.461-11.183-19.155c-14.299-11.065-24.093-10.843-36.42,2.668
		c-7.287,7.986-18.501,12.38-27.918,18.437c-2.246,1.445-6.124,2.941-6.263,4.657c-1.028,12.561-12.034,12.762-19.844,16.969
		c-2.947,1.587-5.7,3.534-10.706,6.676c6.793,3.734,11.495,6.32,14.622,8.039c-1.695,9.514-6.084,23.823-4.113,24.76
		c13.332,6.342,3.152,27.875,20.554,30.012c8.878,18.881,20.14,33.918,39.325,45.774c29.075,17.971,58.553,31.671,92.601,30.589
		C506.351,345.194,544.64,328.552,565.751,289.86z M615.837,615.007c-0.552,1.013-1.104,2.024-1.655,3.037
		c-4.496-1.596-9.727-2.216-13.361-4.954c-17.756-13.376-20.845-32.861-18.679-57.12c-14.494,8.79-19.902,19.542-21.787,31.114
		c-2.996,18.4,8.702,27.784,25.823,32.808c-2.513,3.268-4.223,5.49-5.909,7.684c8.784,8.751,16.972,17.267,25.548,25.369
		c14.088,13.312,15.184,22.334,6.043,39.627c-1.889,3.574,0.295,9.24,0.418,13.948c0.2,7.689,1.016,15.479,0.074,23.04
		c-0.556,4.464-3.994,8.569-6.175,12.913c27.298,10.634,53.677,1.387,63.68-20.658c9.806-21.607,9.862-44.804,6.604-66.676
		c-3.295-22.114-13.714-43.137-20.701-64.738c-6.69-20.682-20.746-32.614-42.017-35.823c-17.102-2.58-27.47,9.302-24.958,26.626
		C591.193,597.814,601.713,607.592,615.837,615.007z M244.535,571.284c-11.682,5.854-17.227-1.562-24.226-4.139
		c-5.493-2.021-14.328-3.757-17.711-0.908c-7.353,6.193-18.421,13.841-12.642,25.346c2.725,5.423,13.824,11.533,18.934,10.003
		c20.132-6.032,39.482-1.002,59.077-1.173c17.758-0.154,36.789-4.392,55.329-6.431c6.088-0.67,11.977-3.627,18.039-3.934
		c12.526-0.633,22.014-7.374,21.602-16.593c-0.365-8.191-10.612-16.39-21.38-15.699c-12.733,0.819-24.256-2.588-30.531-13.167
		c-7.116-11.999-12.538-25.421-16.257-38.897c-3.629-13.158-12.325-22.917-22.959-20.999c-9.936,1.793-16.37,15.379-13.249,28.403
		c0.934,3.896,2.559,7.62,3.741,11.463c1.685,5.471,3.252,10.978,5.64,19.081c-11.241-9.332-18.902-18.062-28.526-22.829
		c-6.166-3.054-15.509-1.4-22.865,0.418c-3.418,0.845-8.236,7.542-7.707,10.83c2.156,13.427,6.696,26.178,20.752,32.367
		C233.848,566.298,238.042,568.297,244.535,571.284z M493.73,175.688c0.178-26.436-15.54-45.774-37.269-45.852
		c-20.25-0.072-38.853,21.272-39.372,45.172c-0.508,23.375,15.833,41.315,38.047,41.771
		C477.166,217.232,493.57,199.766,493.73,175.688z M373.741,111.497c-0.745,17.53,7.744,29.94,22.049,38.796
		c7.736,4.79,14.319,4.355,21.231-3.304c7.665-8.493,17.871-14.659,25.821-22.939c4.385-4.568,8.891-11.335,9.039-17.22
		c0.458-18.042-19.129-34.263-39.386-34.363C389.899,72.354,374.048,88.317,373.741,111.497z M535.993,109.098
		c-0.271-15.627-9.764-30.773-23.067-36.613c-14.784-6.491-28.61-5.336-41.458,5.018c-11.711,9.437-19.104,23.444-10.883,35.127
		c9.774,13.894,25.816,23.386,39.217,34.699c0.473,0.398,1.728-0.115,2.614-0.221C520.135,144.971,536.294,126.675,535.993,109.098z
		 M536.367,579.483c7.711-3.252,19.388-4.469,21.988-9.976c7.392-15.646,18.696-20.436,34.705-18.295
		c-1.016-18.802-11.103-30.565-23.802-40.258c-6.3-4.809-14.139-5.271-18.264,3.079c-6.883,13.934-17.051,21.11-32.697,17.925
		C515.018,552.619,520.114,568.584,536.367,579.483z M548.869,579.28c-3.402,3.843-8.714,8.085-11.741,13.585
		c-9.093,16.513-3.46,25.746,14.901,25.725c4.27-0.005,8.537-0.001,11.395-0.001C558.79,606.074,554.173,593.604,548.869,579.28z
		 M514.908,627.656c4.545-1.51,8.123-2.698,8.786-2.918c2.53-11.8,3.986-21.225,6.641-30.299
		c3.284-11.231,0.404-15.883-12.398-17.82C516.97,592.918,516.002,609.229,514.908,627.656z"/>
	<path fill-rule="evenodd" clip-rule="evenodd" d="M416.423,434.847c0.92-14.012,1.841-28.024,2.762-42.038
		c2.445,0.235,4.893,0.47,7.338,0.704c-1.685,13.946-3.37,27.893-5.055,41.838C419.786,435.184,418.105,435.016,416.423,434.847z"/>
	<path fill-rule="evenodd" clip-rule="evenodd" d="M512.125,404.333c-7.075-5.575-14.419-9.907-19.687-16.026
		c-3.462-4.02-3.928-10.62-4.146-16.685C497.635,382.237,513.623,388.091,512.125,404.333z"/>
	<path fill-rule="evenodd" clip-rule="evenodd" d="M455.427,577.275c2.945,10.87,5.878,17.943-2.406,25.58
		c-3.683,3.396-2.999,11.527-4.266,17.357C441.741,610.636,442.106,607.965,455.427,577.275z"/>
	<path fill-rule="evenodd" clip-rule="evenodd" d="M405.581,445.009c-1.878,10.979-3.757,21.96-5.635,32.939
		c-1.414-0.231-2.829-0.465-4.244-0.697c-3.657-11.784-2.378-22.828,5.996-32.806C402.991,444.634,404.287,444.82,405.581,445.009z"
		/>
	<path fill-rule="evenodd" clip-rule="evenodd" d="M326.479,494.702c4.479-9.43,8.96-18.86,13.441-28.29
		c1.903,0.87,3.808,1.741,5.711,2.611c-4.083,9.532-8.166,19.063-12.249,28.594C331.082,496.646,328.78,495.674,326.479,494.702z"/>
	<path fill-rule="evenodd" clip-rule="evenodd" d="M350.944,204.419c-1.669,16.18,7.063,18.345,17.822,21.435
		c9.557,2.745,17.563,10.771,28.679,5.159c1.102-0.555,4.031,0.355,4.716,1.456c11.836,18.989,27.943,9.82,42.924,6.432
		c9.251-2.093,18.101-6.525,27.407-7.677c12.373-1.532,26.065,2.101,37.31-1.847c19.603-6.881,43.864-4.769,56.766-27.017
		c5.425-9.354,10.807-0.814,19.708,2.047c-6.861,3.829-10.598,5.59-13.991,7.864c-14.199,9.513-23.312,21.912-28.648,38.908
		c-11.91,37.944-38.122,62.261-78.048,67.978c-24.998,3.581-46.784-7.818-64.085-24.835c-13.203-12.986-22.777-29.578-35.148-43.517
		c-8.236-9.279-18.823-16.434-27.731-25.179c-2.002-1.965-3.048-7.792-1.638-9.742C339.894,211.868,344.757,209.27,350.944,204.419z
		"/>
	<path fill-rule="evenodd" clip-rule="evenodd" d="M393.178,171.467c-13.542,4.407-27.084,8.814-40.626,13.222
		c-0.562-1.678-1.125-3.355-1.688-5.032c13.469-4.652,26.938-9.304,40.406-13.956C391.907,167.624,392.542,169.545,393.178,171.467z
		"/>
	<path fill-rule="evenodd" clip-rule="evenodd" d="M369.413,300.924c-4.64-6.148-9.506-12.151-13.683-18.6
		c-0.65-1.003,1.848-4.046,2.891-6.146c1.73,0.942,4.192,1.449,5.058,2.905c3.55,5.977,6.613,12.246,9.854,18.406
		C372.159,298.635,370.786,299.778,369.413,300.924z"/>
	<path fill-rule="evenodd" clip-rule="evenodd" d="M575.229,243.432c-2.985,8.489-5.972,16.977-8.957,25.465
		c-2.062-0.72-4.123-1.44-6.185-2.16c2.928-8.444,5.854-16.887,8.781-25.33C570.99,242.083,573.109,242.757,575.229,243.432z"/>
	<path fill-rule="evenodd" clip-rule="evenodd" d="M547.863,165.401c-9.085,0-17.861,0-26.86,0
		C528.472,154.647,538.408,154.635,547.863,165.401z"/>
	<path fill-rule="evenodd" clip-rule="evenodd" d="M420.368,97.917c9.415,1.216,14.234,6.564,13.818,16.931
		c-0.406,10.095-6.372,14.712-15.296,14.61c-10.296-0.117-14.778-7.169-14.519-16.897
		C404.627,102.912,410.334,98.298,420.368,97.917z"/>
	<path fill-rule="evenodd" clip-rule="evenodd" d="M476.165,109.187c0.609-9.799,6.701-14.222,16.701-13.837
		c10.137,0.391,15.53,6.283,15.968,16.012c0.354,7.898-10.175,17.179-18.121,16.188
		C480.657,126.295,476.476,119.546,476.165,109.187z"/>
</g>
</svg>
